<?xml version="1.0" standalone="no"?><!DOCTYPE svg PUBLIC "-//W3C//DTD SVG 1.1//EN" "http://www.w3.org/Graphics/SVG/1.1/DTD/svg11.dtd"><svg t="1776668897417" class="icon" viewBox="0 0 1024 1024" version="1.1" xmlns="http://www.w3.org/2000/svg" p-id="1716" xmlns:xlink="http://www.w3.org/1999/xlink" width="200" height="200"><path d="M985.31555555 111.50222222H38.68444445c-20.13866667 0-36.40888889 16.27022222-36.4088889 36.40888889v728.17777778c0 20.13866667 16.27022222 36.40888889 36.4088889 36.40888889h946.6311111c20.13866667 0 36.40888889-16.27022222 36.4088889-36.40888889V147.91111111c0-20.13866667-16.27022222-36.40888889-36.4088889-36.40888889z m-45.5111111 719.07555556H84.19555555v-45.39733333l157.58222223-186.9368889 170.78044444 202.52444445L678.22933333 485.83111111 939.80444445 795.98933333V830.57777778z m0-147.68355556L685.16977778 380.928c-3.64088889-4.32355555-10.24-4.32355555-13.88088889 0L412.55822222 687.67288889l-163.84-194.21866667c-3.64088889-4.32355555-10.24-4.32355555-13.88088889 0L84.19555555 672.08533333V193.42222222h855.6088889v489.472zM275.34222222 448.28444445a100.12444445 100.12444445 0 1 0 0-200.2488889 100.12444445 100.12444445 0 0 0 0 200.2488889z m0-131.98222223c17.63555555 0 31.85777778 14.22222222 31.85777778 31.85777778s-14.22222222 31.85777778-31.85777778 31.85777778-31.85777778-14.22222222-31.85777777-31.85777778 14.22222222-31.85777778 31.85777777-31.85777778z" p-id="1717"></path></svg>